<svg width="24" height="86" viewBox="0 0 24 86" fill="none" xmlns="http://www.w3.org/2000/svg">
<circle cx="12" cy="8" r="7" stroke="black" stroke-width="2"/>
<circle cx="12" cy="29" r="2" fill="#B3B3B3"/>
<circle cx="12" cy="41" r="2" fill="#B3B3B3"/>
<circle cx="12" cy="53" r="2" fill="#B3B3B3"/>
<path d="M12 84C11.7667 84 11.5667 83.9333 11.4 83.8C11.2333 83.6667 11.1083 83.4917 11.025 83.275C10.7083 82.3417 10.3083 81.4667 9.825 80.65C9.35833 79.8333 8.7 78.875 7.85 77.775C7 76.675 6.30833 75.625 5.775 74.625C5.25833 73.625 5 72.4167 5 71C5 69.05 5.675 67.4 7.025 66.05C8.39167 64.6833 10.05 64 12 64C13.95 64 15.6 64.6833 16.95 66.05C18.3167 67.4 19 69.05 19 71C19 72.5167 18.7083 73.7833 18.125 74.8C17.5583 75.8 16.9 76.7917 16.15 77.775C15.25 78.975 14.5667 79.975 14.1 80.775C13.65 81.5583 13.275 82.3917 12.975 83.275C12.8917 83.5083 12.7583 83.6917 12.575 83.825C12.4083 83.9417 12.2167 84 12 84ZM12 80.425C12.2833 79.8583 12.6 79.3 12.95 78.75C13.3167 78.2 13.85 77.4667 14.55 76.55C15.2667 75.6167 15.85 74.7583 16.3 73.975C16.7667 73.175 17 72.1833 17 71C17 69.6167 16.5083 68.4417 15.525 67.475C14.5583 66.4917 13.3833 66 12 66C10.6167 66 9.43333 66.4917 8.45 67.475C7.48333 68.4417 7 69.6167 7 71C7 72.1833 7.225 73.175 7.675 73.975C8.14167 74.7583 8.73333 75.6167 9.45 76.55C10.15 77.4667 10.675 78.2 11.025 78.75C11.3917 79.3 11.7167 79.8583 12 80.425ZM12 73.5C12.7 73.5 13.2917 73.2583 13.775 72.775C14.2583 72.2917 14.5 71.7 14.5 71C14.5 70.3 14.2583 69.7083 13.775 69.225C13.2917 68.7417 12.7 68.5 12 68.5C11.3 68.5 10.7083 68.7417 10.225 69.225C9.74167 69.7083 9.5 70.3 9.5 71C9.5 71.7 9.74167 72.2917 10.225 72.775C10.7083 73.2583 11.3 73.5 12 73.5Z" fill="#DB7500"/>
</svg>
