<svg width="23" height="29" viewBox="0 0 23 29" fill="none" xmlns="http://www.w3.org/2000/svg">
<path fill-rule="evenodd" clip-rule="evenodd" d="M22.0692 1.76075V26.3902C22.0676 26.8549 21.8828 27.3002 21.5548 27.6293C21.2267 27.9584 20.7821 28.1448 20.3174 28.148H5.41998V24.899C5.4184 24.3237 5.18917 23.7724 4.78237 23.3656C4.37557 22.9588 3.82429 22.7296 3.249 22.728H2.61517e-06V1.76673C-0.000799683 1.30051 0.183028 0.852935 0.511292 0.521865C0.839556 0.190795 1.28555 0.00316552 1.75176 0H20.3174C20.7842 0.00079175 21.2316 0.186553 21.5616 0.516585C21.8916 0.846617 22.0774 1.29401 22.0782 1.76075H22.0692ZM17.7811 6.13266H4.28808C4.18494 6.14147 4.08886 6.18866 4.01885 6.2649C3.94883 6.34115 3.90999 6.44089 3.90999 6.5444C3.90999 6.64792 3.94883 6.74766 4.01885 6.8239C4.08886 6.90015 4.18494 6.94734 4.28808 6.95614H17.7811C17.8843 6.94734 17.9804 6.90015 18.0504 6.8239C18.1204 6.74766 18.1592 6.64792 18.1592 6.5444C18.1592 6.44089 18.1204 6.34115 18.0504 6.2649C17.9804 6.18866 17.8843 6.14147 17.7811 6.13266ZM17.7811 9.8997H4.28808C4.17927 9.8997 4.07493 9.94292 3.99799 10.0199C3.92106 10.0968 3.87783 10.2011 3.87783 10.3099C3.87783 10.4187 3.92106 10.5231 3.99799 10.6C4.07493 10.677 4.17927 10.7202 4.28808 10.7202H17.7811C17.8899 10.7202 17.9943 10.677 18.0712 10.6C18.1482 10.5231 18.1914 10.4187 18.1914 10.3099C18.1914 10.2011 18.1482 10.0968 18.0712 10.0199C17.9943 9.94292 17.8899 9.8997 17.7811 9.8997ZM17.7811 21.1918H9.39663C9.2935 21.2006 9.19742 21.2478 9.1274 21.3241C9.05739 21.4003 9.01854 21.5001 9.01854 21.6036C9.01854 21.7071 9.05739 21.8068 9.1274 21.8831C9.19742 21.9593 9.2935 22.0065 9.39663 22.0153H17.7811C17.8843 22.0065 17.9804 21.9593 18.0504 21.8831C18.1204 21.8068 18.1592 21.7071 18.1592 21.6036C18.1592 21.5001 18.1204 21.4003 18.0504 21.3241C17.9804 21.2478 17.8843 21.2006 17.7811 21.1918ZM17.7811 17.4278H4.28808C4.17927 17.4278 4.07493 17.471 3.99799 17.5479C3.92106 17.6249 3.87783 17.7292 3.87783 17.838C3.87783 17.9468 3.92106 18.0512 3.99799 18.1281C4.07493 18.205 4.17927 18.2483 4.28808 18.2483H17.7811C17.8899 18.2483 17.9943 18.205 18.0712 18.1281C18.1482 18.0512 18.1914 17.9468 18.1914 17.838C18.1914 17.7292 18.1482 17.6249 18.0712 17.5479C17.9943 17.471 17.8899 17.4278 17.7811 17.4278ZM17.7811 13.6637H4.28808C4.17927 13.6637 4.07493 13.707 3.99799 13.7839C3.92106 13.8608 3.87783 13.9652 3.87783 14.074C3.87783 14.1828 3.92106 14.2871 3.99799 14.3641C4.07493 14.441 4.17927 14.4842 4.28808 14.4842H17.7811C17.8899 14.4842 17.9943 14.441 18.0712 14.3641C18.1482 14.2871 18.1914 14.1828 18.1914 14.074C18.1914 13.9652 18.1482 13.8608 18.0712 13.7839C17.9943 13.707 17.8899 13.6637 17.7811 13.6637ZM4.60549 27.7377V24.899C4.6047 24.5418 4.46248 24.1996 4.20994 23.947C3.9574 23.6945 3.61512 23.5523 3.25798 23.5515H0.410245L4.60549 27.7377Z" fill="#DB7500"/>
</svg>
