<svg width="27" height="27" viewBox="0 0 27 27" fill="none" xmlns="http://www.w3.org/2000/svg">
<path d="M7.875 25.875L11.025 10.0125L9 10.8V14.625H6.75V9.3375L12.4313 6.91875C12.6938 6.80625 12.9703 6.74062 13.2609 6.72187C13.5516 6.70312 13.8281 6.74063 14.0906 6.83438C14.3531 6.92813 14.6016 7.05938 14.8359 7.22813C15.0703 7.39688 15.2625 7.6125 15.4125 7.875L16.5375 9.675C17.025 10.4625 17.6859 11.1094 18.5203 11.6156C19.3547 12.1219 20.3063 12.375 21.375 12.375V14.625C20.0625 14.625 18.8906 14.3531 17.8594 13.8094C16.8281 13.2656 15.9469 12.5719 15.2156 11.7281L14.5125 15.1875L16.875 17.4375V25.875H14.625V18.5625L12.2625 16.7625L10.2375 25.875H7.875ZM15.1875 6.1875C14.5687 6.1875 14.0391 5.96719 13.5984 5.52656C13.1578 5.08594 12.9375 4.55625 12.9375 3.9375C12.9375 3.31875 13.1578 2.78906 13.5984 2.34844C14.0391 1.90781 14.5687 1.6875 15.1875 1.6875C15.8063 1.6875 16.3359 1.90781 16.7766 2.34844C17.2172 2.78906 17.4375 3.31875 17.4375 3.9375C17.4375 4.55625 17.2172 5.08594 16.7766 5.52656C16.3359 5.96719 15.8063 6.1875 15.1875 6.1875Z" fill="#DB7500"/>
</svg>
