<svg width="347" height="140" viewBox="0 0 347 140" fill="none" xmlns="http://www.w3.org/2000/svg">
<rect width="347" height="122" rx="15" fill="#C2CAF2"/>
<path d="M15 43.9999C30.6747 43.9999 57.6903 40.4286 76.5 44C104.823 49.3778 128.903 56.2023 145.623 56.2023C184.287 56.2023 194.288 47.7499 208.5 50.8451C222.712 53.9404 242.11 68.6031 251.166 68.9999H317" stroke="black" stroke-opacity="0.49" stroke-width="3" stroke-dasharray="6 6"/>
<path d="M19.4033 93.176C18.9446 93.176 18.4806 93.112 18.0113 92.984C17.5419 92.856 17.1046 92.664 16.6993 92.408C16.4859 92.3013 16.3366 92.152 16.2513 91.96C16.1766 91.7573 16.1553 91.5547 16.1873 91.352C16.2193 91.1493 16.2993 90.9733 16.4273 90.824C16.5553 90.664 16.7153 90.5627 16.9073 90.52C17.1099 90.4667 17.3393 90.4987 17.5953 90.616C17.9259 90.7973 18.2406 90.9253 18.5393 91C18.8486 91.0747 19.1473 91.112 19.4353 91.112C20.0006 91.112 20.4806 90.984 20.8753 90.728C21.2699 90.472 21.5633 90.088 21.7553 89.576C21.9579 89.0533 22.0593 88.4187 22.0593 87.672V86.632H22.2833C22.1979 87.1333 22.0219 87.5653 21.7553 87.928C21.4886 88.2907 21.1526 88.568 20.7473 88.76C20.3419 88.952 19.8939 89.048 19.4033 89.048C18.7739 89.048 18.2086 88.8933 17.7073 88.584C17.2059 88.264 16.8113 87.8267 16.5233 87.272C16.2353 86.7173 16.0913 86.0933 16.0913 85.4C16.0913 84.6533 16.2513 83.992 16.5713 83.416C16.8913 82.8293 17.3393 82.3707 17.9153 82.04C18.4913 81.7093 19.1526 81.544 19.8993 81.544C20.8699 81.544 21.6859 81.768 22.3473 82.216C23.0193 82.6533 23.5313 83.2987 23.8833 84.152C24.2353 84.9947 24.4113 86.0133 24.4113 87.208C24.4113 88.1573 24.2939 89 24.0593 89.736C23.8353 90.472 23.5099 91.096 23.0833 91.608C22.6566 92.12 22.1286 92.5093 21.4993 92.776C20.8806 93.0427 20.1819 93.176 19.4033 93.176ZM20.0433 87.112C20.3739 87.112 20.6619 87.0373 20.9073 86.888C21.1633 86.728 21.3606 86.5093 21.4993 86.232C21.6379 85.9547 21.7073 85.64 21.7073 85.288C21.7073 84.9253 21.6379 84.6053 21.4993 84.328C21.3606 84.0507 21.1633 83.8373 20.9073 83.688C20.6619 83.5387 20.3739 83.464 20.0433 83.464C19.7126 83.464 19.4246 83.5387 19.1793 83.688C18.9339 83.8373 18.7366 84.0507 18.5873 84.328C18.4486 84.6053 18.3793 84.9253 18.3793 85.288C18.3793 85.64 18.4486 85.9547 18.5873 86.232C18.7366 86.5093 18.9339 86.728 19.1793 86.888C19.4246 87.0373 19.7126 87.112 20.0433 87.112ZM27.221 93.08C26.7943 93.08 26.453 92.952 26.197 92.696C25.9517 92.44 25.829 92.1093 25.829 91.704C25.829 91.3093 25.9517 90.9893 26.197 90.744C26.453 90.488 26.7943 90.36 27.221 90.36C27.6477 90.36 27.9783 90.488 28.213 90.744C28.4583 90.9893 28.581 91.3093 28.581 91.704C28.581 92.1093 28.4583 92.44 28.213 92.696C27.9783 92.952 27.6477 93.08 27.221 93.08ZM27.221 87.784C26.7943 87.784 26.453 87.656 26.197 87.4C25.9517 87.144 25.829 86.8187 25.829 86.424C25.829 86.0187 25.9517 85.6933 26.197 85.448C26.453 85.192 26.7943 85.064 27.221 85.064C27.6477 85.064 27.9783 85.192 28.213 85.448C28.4583 85.6933 28.581 86.0187 28.581 86.424C28.581 86.8187 28.4583 87.144 28.213 87.4C27.9783 87.656 27.6477 87.784 27.221 87.784ZM34.0813 93.176C32.7159 93.176 31.6706 92.6693 30.9453 91.656C30.2306 90.632 29.8733 89.1867 29.8733 87.32C29.8733 86.072 30.0333 85.0213 30.3533 84.168C30.6839 83.304 31.1586 82.6533 31.7773 82.216C32.4066 81.768 33.1746 81.544 34.0813 81.544C35.4573 81.544 36.5026 82.04 37.2173 83.032C37.9319 84.0133 38.2893 85.4427 38.2893 87.32C38.2893 88.568 38.1239 89.6293 37.7933 90.504C37.4733 91.368 37.0039 92.0293 36.3853 92.488C35.7666 92.9467 34.9986 93.176 34.0813 93.176ZM34.0813 91.16C34.6999 91.16 35.1586 90.856 35.4573 90.248C35.7559 89.6293 35.9053 88.6533 35.9053 87.32C35.9053 85.9867 35.7559 85.0267 35.4573 84.44C35.1586 83.8533 34.6999 83.56 34.0813 83.56C33.4626 83.56 33.0039 83.8533 32.7053 84.44C32.4066 85.0267 32.2573 85.9867 32.2573 87.32C32.2573 88.6533 32.4066 89.6293 32.7053 90.248C33.0039 90.856 33.4626 91.16 34.0813 91.16ZM43.675 93.176C42.3097 93.176 41.2643 92.6693 40.539 91.656C39.8243 90.632 39.467 89.1867 39.467 87.32C39.467 86.072 39.627 85.0213 39.947 84.168C40.2777 83.304 40.7523 82.6533 41.371 82.216C42.0003 81.768 42.7683 81.544 43.675 81.544C45.051 81.544 46.0963 82.04 46.811 83.032C47.5257 84.0133 47.883 85.4427 47.883 87.32C47.883 88.568 47.7177 89.6293 47.387 90.504C47.067 91.368 46.5977 92.0293 45.979 92.488C45.3603 92.9467 44.5923 93.176 43.675 93.176ZM43.675 91.16C44.2937 91.16 44.7523 90.856 45.051 90.248C45.3497 89.6293 45.499 88.6533 45.499 87.32C45.499 85.9867 45.3497 85.0267 45.051 84.44C44.7523 83.8533 44.2937 83.56 43.675 83.56C43.0563 83.56 42.5977 83.8533 42.299 84.44C42.0003 85.0267 41.851 85.9867 41.851 87.32C41.851 88.6533 42.0003 89.6293 42.299 90.248C42.5977 90.856 43.0563 91.16 43.675 91.16Z" fill="#8590C8"/>
<path d="M152.246 93C151.905 93 151.644 92.9093 151.462 92.728C151.281 92.5467 151.19 92.296 151.19 91.976C151.19 91.6453 151.281 91.3947 151.462 91.224C151.644 91.0533 151.905 90.968 152.246 90.968H153.862V83.752H155.03L152.694 85.176C152.449 85.3253 152.22 85.384 152.006 85.352C151.804 85.32 151.628 85.2293 151.478 85.08C151.329 84.9307 151.228 84.7547 151.174 84.552C151.132 84.3387 151.153 84.1307 151.238 83.928C151.324 83.7147 151.484 83.5333 151.718 83.384L153.942 82.04C154.166 81.9013 154.39 81.7893 154.614 81.704C154.849 81.6187 155.078 81.576 155.302 81.576C155.622 81.576 155.873 81.6613 156.054 81.832C156.246 81.992 156.342 82.2427 156.342 82.584V90.968H157.798C158.129 90.968 158.385 91.0533 158.566 91.224C158.748 91.3947 158.838 91.6453 158.838 91.976C158.838 92.3067 158.748 92.5627 158.566 92.744C158.385 92.9147 158.129 93 157.798 93H152.246ZM164.128 93.176C163.232 93.176 162.464 93.048 161.824 92.792C161.184 92.536 160.693 92.168 160.352 91.688C160.011 91.1973 159.84 90.6107 159.84 89.928C159.84 89.3947 159.947 88.92 160.16 88.504C160.384 88.088 160.688 87.752 161.072 87.496C161.456 87.24 161.888 87.08 162.368 87.016V87.432C161.696 87.2827 161.152 86.9573 160.736 86.456C160.331 85.944 160.128 85.3307 160.128 84.616C160.128 83.976 160.288 83.4267 160.608 82.968C160.939 82.5093 161.403 82.1573 162 81.912C162.608 81.6667 163.317 81.544 164.128 81.544C164.949 81.544 165.659 81.6667 166.256 81.912C166.853 82.1573 167.317 82.5093 167.648 82.968C167.979 83.4267 168.144 83.976 168.144 84.616C168.144 85.096 168.048 85.5333 167.856 85.928C167.675 86.3227 167.413 86.648 167.072 86.904C166.741 87.16 166.357 87.3253 165.92 87.4V87.016C166.656 87.1227 167.253 87.4373 167.712 87.96C168.181 88.4827 168.416 89.1387 168.416 89.928C168.416 90.6107 168.245 91.1973 167.904 91.688C167.563 92.168 167.072 92.536 166.432 92.792C165.792 93.048 165.024 93.176 164.128 93.176ZM164.128 91.272C164.789 91.272 165.291 91.144 165.632 90.888C165.973 90.632 166.144 90.2533 166.144 89.752C166.144 89.2507 165.973 88.8773 165.632 88.632C165.291 88.376 164.789 88.248 164.128 88.248C163.467 88.248 162.965 88.376 162.624 88.632C162.283 88.8773 162.112 89.2507 162.112 89.752C162.112 90.2533 162.283 90.632 162.624 90.888C162.965 91.144 163.467 91.272 164.128 91.272ZM164.128 86.344C164.491 86.344 164.8 86.2853 165.056 86.168C165.323 86.0507 165.52 85.88 165.648 85.656C165.787 85.432 165.856 85.176 165.856 84.888C165.856 84.44 165.701 84.088 165.392 83.832C165.093 83.576 164.672 83.448 164.128 83.448C163.584 83.448 163.163 83.576 162.864 83.832C162.565 84.088 162.416 84.44 162.416 84.888C162.416 85.336 162.565 85.6933 162.864 85.96C163.163 86.216 163.584 86.344 164.128 86.344ZM171.018 93.08C170.591 93.08 170.25 92.952 169.994 92.696C169.749 92.44 169.626 92.1093 169.626 91.704C169.626 91.3093 169.749 90.9893 169.994 90.744C170.25 90.488 170.591 90.36 171.018 90.36C171.445 90.36 171.775 90.488 172.01 90.744C172.255 90.9893 172.378 91.3093 172.378 91.704C172.378 92.1093 172.255 92.44 172.01 92.696C171.775 92.952 171.445 93.08 171.018 93.08ZM171.018 87.784C170.591 87.784 170.25 87.656 169.994 87.4C169.749 87.144 169.626 86.8187 169.626 86.424C169.626 86.0187 169.749 85.6933 169.994 85.448C170.25 85.192 170.591 85.064 171.018 85.064C171.445 85.064 171.775 85.192 172.01 85.448C172.255 85.6933 172.378 86.0187 172.378 86.424C172.378 86.8187 172.255 87.144 172.01 87.4C171.775 87.656 171.445 87.784 171.018 87.784ZM177.878 93.176C176.513 93.176 175.467 92.6693 174.742 91.656C174.027 90.632 173.67 89.1867 173.67 87.32C173.67 86.072 173.83 85.0213 174.15 84.168C174.481 83.304 174.955 82.6533 175.574 82.216C176.203 81.768 176.971 81.544 177.878 81.544C179.254 81.544 180.299 82.04 181.014 83.032C181.729 84.0133 182.086 85.4427 182.086 87.32C182.086 88.568 181.921 89.6293 181.59 90.504C181.27 91.368 180.801 92.0293 180.182 92.488C179.563 92.9467 178.795 93.176 177.878 93.176ZM177.878 91.16C178.497 91.16 178.955 90.856 179.254 90.248C179.553 89.6293 179.702 88.6533 179.702 87.32C179.702 85.9867 179.553 85.0267 179.254 84.44C178.955 83.8533 178.497 83.56 177.878 83.56C177.259 83.56 176.801 83.8533 176.502 84.44C176.203 85.0267 176.054 85.9867 176.054 87.32C176.054 88.6533 176.203 89.6293 176.502 90.248C176.801 90.856 177.259 91.16 177.878 91.16ZM187.472 93.176C186.107 93.176 185.061 92.6693 184.336 91.656C183.621 90.632 183.264 89.1867 183.264 87.32C183.264 86.072 183.424 85.0213 183.744 84.168C184.075 83.304 184.549 82.6533 185.168 82.216C185.797 81.768 186.565 81.544 187.472 81.544C188.848 81.544 189.893 82.04 190.608 83.032C191.323 84.0133 191.68 85.4427 191.68 87.32C191.68 88.568 191.515 89.6293 191.184 90.504C190.864 91.368 190.395 92.0293 189.776 92.488C189.157 92.9467 188.389 93.176 187.472 93.176ZM187.472 91.16C188.091 91.16 188.549 90.856 188.848 90.248C189.147 89.6293 189.296 88.6533 189.296 87.32C189.296 85.9867 189.147 85.0267 188.848 84.44C188.549 83.8533 188.091 83.56 187.472 83.56C186.853 83.56 186.395 83.8533 186.096 84.44C185.797 85.0267 185.648 85.9867 185.648 87.32C185.648 88.6533 185.797 89.6293 186.096 90.248C186.395 90.856 186.853 91.16 187.472 91.16Z" fill="#8590C8"/>
<path d="M277.942 93C277.548 93 277.254 92.9093 277.062 92.728C276.881 92.536 276.79 92.2587 276.79 91.896C276.79 91.6613 276.849 91.4427 276.966 91.24C277.084 91.0373 277.244 90.8293 277.446 90.616L280.454 87.448C280.902 86.968 281.222 86.5413 281.414 86.168C281.617 85.7947 281.718 85.4213 281.718 85.048C281.718 84.5787 281.564 84.2213 281.254 83.976C280.956 83.7307 280.518 83.608 279.942 83.608C279.633 83.608 279.313 83.656 278.982 83.752C278.662 83.8373 278.326 83.9813 277.974 84.184C277.74 84.312 277.521 84.36 277.318 84.328C277.126 84.2853 276.961 84.1947 276.822 84.056C276.684 83.9067 276.593 83.7307 276.55 83.528C276.508 83.3253 276.529 83.1227 276.614 82.92C276.7 82.7173 276.86 82.5467 277.094 82.408C277.564 82.12 278.076 81.9067 278.63 81.768C279.185 81.6187 279.734 81.544 280.278 81.544C281.121 81.544 281.83 81.672 282.406 81.928C282.982 82.1733 283.42 82.536 283.718 83.016C284.017 83.496 284.166 84.0827 284.166 84.776C284.166 85.224 284.097 85.6613 283.958 86.088C283.82 86.5147 283.601 86.9467 283.302 87.384C283.014 87.8107 282.63 88.2693 282.15 88.76L279.35 91.608V90.968H283.686C284.028 90.968 284.284 91.0533 284.454 91.224C284.636 91.3947 284.726 91.6453 284.726 91.976C284.726 92.3067 284.636 92.5627 284.454 92.744C284.284 92.9147 284.028 93 283.686 93H277.942ZM287.536 93C287.141 93 286.848 92.9093 286.656 92.728C286.475 92.536 286.384 92.2587 286.384 91.896C286.384 91.6613 286.443 91.4427 286.56 91.24C286.677 91.0373 286.837 90.8293 287.04 90.616L290.048 87.448C290.496 86.968 290.816 86.5413 291.008 86.168C291.211 85.7947 291.312 85.4213 291.312 85.048C291.312 84.5787 291.157 84.2213 290.848 83.976C290.549 83.7307 290.112 83.608 289.536 83.608C289.227 83.608 288.907 83.656 288.576 83.752C288.256 83.8373 287.92 83.9813 287.568 84.184C287.333 84.312 287.115 84.36 286.912 84.328C286.72 84.2853 286.555 84.1947 286.416 84.056C286.277 83.9067 286.187 83.7307 286.144 83.528C286.101 83.3253 286.123 83.1227 286.208 82.92C286.293 82.7173 286.453 82.5467 286.688 82.408C287.157 82.12 287.669 81.9067 288.224 81.768C288.779 81.6187 289.328 81.544 289.872 81.544C290.715 81.544 291.424 81.672 292 81.928C292.576 82.1733 293.013 82.536 293.312 83.016C293.611 83.496 293.76 84.0827 293.76 84.776C293.76 85.224 293.691 85.6613 293.552 86.088C293.413 86.5147 293.195 86.9467 292.896 87.384C292.608 87.8107 292.224 88.2693 291.744 88.76L288.944 91.608V90.968H293.28C293.621 90.968 293.877 91.0533 294.048 91.224C294.229 91.3947 294.32 91.6453 294.32 91.976C294.32 92.3067 294.229 92.5627 294.048 92.744C293.877 92.9147 293.621 93 293.28 93H287.536ZM297.018 93.08C296.591 93.08 296.25 92.952 295.994 92.696C295.749 92.44 295.626 92.1093 295.626 91.704C295.626 91.3093 295.749 90.9893 295.994 90.744C296.25 90.488 296.591 90.36 297.018 90.36C297.445 90.36 297.775 90.488 298.01 90.744C298.255 90.9893 298.378 91.3093 298.378 91.704C298.378 92.1093 298.255 92.44 298.01 92.696C297.775 92.952 297.445 93.08 297.018 93.08ZM297.018 87.784C296.591 87.784 296.25 87.656 295.994 87.4C295.749 87.144 295.626 86.8187 295.626 86.424C295.626 86.0187 295.749 85.6933 295.994 85.448C296.25 85.192 296.591 85.064 297.018 85.064C297.445 85.064 297.775 85.192 298.01 85.448C298.255 85.6933 298.378 86.0187 298.378 86.424C298.378 86.8187 298.255 87.144 298.01 87.4C297.775 87.656 297.445 87.784 297.018 87.784ZM303.878 93.176C302.513 93.176 301.467 92.6693 300.742 91.656C300.027 90.632 299.67 89.1867 299.67 87.32C299.67 86.072 299.83 85.0213 300.15 84.168C300.481 83.304 300.955 82.6533 301.574 82.216C302.203 81.768 302.971 81.544 303.878 81.544C305.254 81.544 306.299 82.04 307.014 83.032C307.729 84.0133 308.086 85.4427 308.086 87.32C308.086 88.568 307.921 89.6293 307.59 90.504C307.27 91.368 306.801 92.0293 306.182 92.488C305.563 92.9467 304.795 93.176 303.878 93.176ZM303.878 91.16C304.497 91.16 304.955 90.856 305.254 90.248C305.553 89.6293 305.702 88.6533 305.702 87.32C305.702 85.9867 305.553 85.0267 305.254 84.44C304.955 83.8533 304.497 83.56 303.878 83.56C303.259 83.56 302.801 83.8533 302.502 84.44C302.203 85.0267 302.054 85.9867 302.054 87.32C302.054 88.6533 302.203 89.6293 302.502 90.248C302.801 90.856 303.259 91.16 303.878 91.16ZM313.472 93.176C312.107 93.176 311.061 92.6693 310.336 91.656C309.621 90.632 309.264 89.1867 309.264 87.32C309.264 86.072 309.424 85.0213 309.744 84.168C310.075 83.304 310.549 82.6533 311.168 82.216C311.797 81.768 312.565 81.544 313.472 81.544C314.848 81.544 315.893 82.04 316.608 83.032C317.323 84.0133 317.68 85.4427 317.68 87.32C317.68 88.568 317.515 89.6293 317.184 90.504C316.864 91.368 316.395 92.0293 315.776 92.488C315.157 92.9467 314.389 93.176 313.472 93.176ZM313.472 91.16C314.091 91.16 314.549 90.856 314.848 90.248C315.147 89.6293 315.296 88.6533 315.296 87.32C315.296 85.9867 315.147 85.0267 314.848 84.44C314.549 83.8533 314.091 83.56 313.472 83.56C312.853 83.56 312.395 83.8533 312.096 84.44C311.797 85.0267 311.648 85.9867 311.648 87.32C311.648 88.6533 311.797 89.6293 312.096 90.248C312.395 90.856 312.853 91.16 313.472 91.16Z" fill="#8590C8"/>
<path d="M55.483 11.3636H57.5909V18.9659C57.5909 19.7992 57.3939 20.5322 57 21.1648C56.6098 21.7973 56.0606 22.2917 55.3523 22.6477C54.6439 23 53.8163 23.1761 52.8693 23.1761C51.9186 23.1761 51.089 23 50.3807 22.6477C49.6723 22.2917 49.1231 21.7973 48.733 21.1648C48.3428 20.5322 48.1477 19.7992 48.1477 18.9659V11.3636H50.2557V18.7898C50.2557 19.2746 50.3617 19.7064 50.5739 20.0852C50.7898 20.464 51.0928 20.7614 51.483 20.9773C51.8731 21.1894 52.3352 21.2955 52.8693 21.2955C53.4034 21.2955 53.8655 21.1894 54.2557 20.9773C54.6496 20.7614 54.9527 20.464 55.1648 20.0852C55.3769 19.7064 55.483 19.2746 55.483 18.7898V11.3636ZM61.4389 11.3636L64.4673 20.5227H64.5866L67.6094 11.3636H69.9276L65.8253 23H63.223L59.1264 11.3636H61.4389ZM77.5369 11.3636V23H75.429V11.3636H77.5369ZM81.7855 17.8864V23H79.7287V14.2727H81.6946V15.7557H81.7969C81.9976 15.267 82.3177 14.8788 82.7571 14.5909C83.2003 14.303 83.7476 14.1591 84.3991 14.1591C85.0014 14.1591 85.526 14.2879 85.973 14.5455C86.4238 14.803 86.7723 15.1761 87.0185 15.6648C87.2685 16.1534 87.3916 16.7462 87.3878 17.4432V23H85.331V17.7614C85.331 17.178 85.1795 16.7216 84.8764 16.392C84.5772 16.0625 84.1624 15.8977 83.6321 15.8977C83.2723 15.8977 82.9522 15.9773 82.6719 16.1364C82.3954 16.2917 82.1776 16.517 82.0185 16.8125C81.8632 17.108 81.7855 17.4659 81.7855 17.8864ZM92.7173 23.1534C92.0317 23.1534 91.4181 22.9773 90.8764 22.625C90.3348 22.2727 89.9067 21.7614 89.5923 21.0909C89.2779 20.4205 89.1207 19.6061 89.1207 18.6477C89.1207 17.678 89.2798 16.8598 89.598 16.1932C89.92 15.5227 90.3537 15.017 90.8991 14.6761C91.4446 14.3314 92.0526 14.1591 92.723 14.1591C93.2344 14.1591 93.6548 14.2462 93.9844 14.4205C94.3139 14.5909 94.5753 14.7973 94.7685 15.0398C94.9616 15.2784 95.1113 15.5038 95.2173 15.7159H95.3026V11.3636H97.3651V23H95.3423V21.625H95.2173C95.1113 21.8371 94.9579 22.0625 94.7571 22.3011C94.5563 22.536 94.2912 22.7367 93.9616 22.9034C93.6321 23.0701 93.2173 23.1534 92.7173 23.1534ZM93.2912 21.4659C93.7268 21.4659 94.098 21.3485 94.4048 21.1136C94.7116 20.875 94.9446 20.5436 95.1037 20.1193C95.2628 19.6951 95.3423 19.2008 95.3423 18.6364C95.3423 18.072 95.2628 17.5814 95.1037 17.1648C94.9484 16.7481 94.7173 16.4242 94.4105 16.1932C94.1075 15.9621 93.7344 15.8466 93.2912 15.8466C92.8329 15.8466 92.4503 15.9659 92.1435 16.2045C91.8366 16.4432 91.6056 16.7727 91.4503 17.1932C91.295 17.6136 91.2173 18.0947 91.2173 18.6364C91.2173 19.1818 91.295 19.6686 91.4503 20.0966C91.6094 20.5208 91.8423 20.8561 92.1491 21.1023C92.4598 21.3447 92.8404 21.4659 93.2912 21.4659ZM103.42 23.1705C102.545 23.1705 101.79 22.9886 101.153 22.625C100.521 22.2576 100.034 21.7386 99.6932 21.0682C99.3523 20.3939 99.1818 19.6004 99.1818 18.6875C99.1818 17.7898 99.3523 17.0019 99.6932 16.3239C100.038 15.642 100.519 15.1117 101.136 14.733C101.754 14.3504 102.479 14.1591 103.312 14.1591C103.85 14.1591 104.358 14.2462 104.835 14.4205C105.316 14.5909 105.741 14.8561 106.108 15.2159C106.479 15.5758 106.771 16.0341 106.983 16.5909C107.195 17.1439 107.301 17.803 107.301 18.5682V19.1989H100.148V17.8125H105.33C105.326 17.4186 105.241 17.0682 105.074 16.7614C104.907 16.4508 104.674 16.2064 104.375 16.0284C104.08 15.8504 103.735 15.7614 103.341 15.7614C102.92 15.7614 102.551 15.8636 102.233 16.0682C101.915 16.2689 101.667 16.5341 101.489 16.8636C101.314 17.1894 101.225 17.5473 101.222 17.9375V19.1477C101.222 19.6553 101.314 20.0909 101.5 20.4545C101.686 20.8144 101.945 21.0909 102.278 21.2841C102.612 21.4735 103.002 21.5682 103.449 21.5682C103.748 21.5682 104.019 21.5265 104.261 21.4432C104.504 21.3561 104.714 21.2292 104.892 21.0625C105.07 20.8958 105.205 20.6894 105.295 20.4432L107.216 20.6591C107.095 21.1667 106.864 21.6098 106.523 21.9886C106.186 22.3636 105.754 22.6553 105.227 22.8636C104.701 23.0682 104.098 23.1705 103.42 23.1705ZM110.536 14.2727L112.297 17.4943L114.087 14.2727H116.263L113.632 18.6364L116.308 23H114.143L112.297 19.858L110.467 23H108.286L110.945 18.6364L108.354 14.2727H110.536ZM119.121 23.125C118.776 23.125 118.481 23.0038 118.234 22.7614C117.988 22.5189 117.867 22.2235 117.871 21.875C117.867 21.5341 117.988 21.2424 118.234 21C118.481 20.7576 118.776 20.6364 119.121 20.6364C119.454 20.6364 119.744 20.7576 119.99 21C120.24 21.2424 120.367 21.5341 120.371 21.875C120.367 22.1061 120.306 22.3163 120.189 22.5057C120.075 22.6951 119.924 22.8466 119.734 22.9602C119.549 23.0701 119.344 23.125 119.121 23.125ZM119.121 16.8977C118.776 16.8977 118.481 16.7765 118.234 16.5341C117.988 16.2879 117.867 15.9924 117.871 15.6477C117.867 15.3068 117.988 15.0152 118.234 14.7727C118.481 14.5265 118.776 14.4034 119.121 14.4034C119.454 14.4034 119.744 14.5265 119.99 14.7727C120.24 15.0152 120.367 15.3068 120.371 15.6477C120.367 15.875 120.306 16.0833 120.189 16.2727C120.075 16.4621 119.924 16.6136 119.734 16.7273C119.549 16.8409 119.344 16.8977 119.121 16.8977ZM130.486 23.1591C129.728 23.1591 129.05 23.017 128.452 22.733C127.853 22.4451 127.378 22.0511 127.026 21.5511C126.677 21.0511 126.491 20.4792 126.469 19.8352H128.514C128.552 20.3125 128.759 20.7027 129.134 21.0057C129.509 21.3049 129.959 21.4545 130.486 21.4545C130.899 21.4545 131.266 21.3598 131.588 21.1705C131.91 20.9811 132.164 20.7178 132.349 20.3807C132.535 20.0436 132.626 19.6591 132.622 19.2273C132.626 18.7879 132.533 18.3977 132.344 18.0568C132.154 17.7159 131.895 17.4489 131.565 17.2557C131.236 17.0587 130.857 16.9602 130.429 16.9602C130.08 16.9564 129.738 17.0208 129.401 17.1534C129.063 17.286 128.796 17.4602 128.599 17.6761L126.696 17.3636L127.304 11.3636H134.054V13.125H129.048L128.713 16.2102H128.781C128.997 15.9564 129.302 15.7462 129.696 15.5795C130.09 15.4091 130.522 15.3239 130.991 15.3239C131.696 15.3239 132.325 15.4905 132.878 15.8239C133.431 16.1534 133.866 16.608 134.185 17.1875C134.503 17.767 134.662 18.4299 134.662 19.1761C134.662 19.9451 134.484 20.6307 134.128 21.233C133.776 21.8314 133.285 22.303 132.656 22.6477C132.031 22.9886 131.308 23.1591 130.486 23.1591Z" fill="white"/>
<path d="M222.159 23L218.875 11.3636H221.142L223.239 19.9148H223.347L225.585 11.3636H227.648L229.892 19.9205H229.994L232.091 11.3636H234.358L231.074 23H228.994L226.665 14.8352H226.574L224.239 23H222.159ZM237.349 23.1761C236.796 23.1761 236.298 23.0777 235.855 22.8807C235.416 22.6799 235.067 22.3845 234.81 21.9943C234.556 21.6042 234.429 21.1231 234.429 20.5511C234.429 20.0587 234.52 19.6515 234.702 19.3295C234.884 19.0076 235.132 18.75 235.446 18.5568C235.76 18.3636 236.115 18.2178 236.509 18.1193C236.906 18.017 237.317 17.9432 237.741 17.8977C238.253 17.8447 238.668 17.7973 238.986 17.7557C239.304 17.7102 239.535 17.642 239.679 17.5511C239.827 17.4564 239.901 17.3106 239.901 17.1136V17.0795C239.901 16.6515 239.774 16.3201 239.52 16.0852C239.266 15.8504 238.901 15.733 238.423 15.733C237.92 15.733 237.52 15.8428 237.224 16.0625C236.933 16.2822 236.736 16.5417 236.634 16.8409L234.713 16.5682C234.865 16.0379 235.115 15.5947 235.463 15.2386C235.812 14.8788 236.238 14.6098 236.741 14.4318C237.245 14.25 237.802 14.1591 238.412 14.1591C238.832 14.1591 239.251 14.2083 239.668 14.3068C240.084 14.4053 240.465 14.5682 240.81 14.7955C241.154 15.0189 241.431 15.3239 241.639 15.7102C241.851 16.0966 241.957 16.5795 241.957 17.1591V23H239.98V21.8011H239.912C239.787 22.0436 239.611 22.2708 239.384 22.483C239.16 22.6913 238.878 22.8598 238.537 22.9886C238.2 23.1136 237.804 23.1761 237.349 23.1761ZM237.884 21.6648C238.296 21.6648 238.654 21.5833 238.957 21.4205C239.26 21.2538 239.493 21.0341 239.656 20.7614C239.823 20.4886 239.906 20.1913 239.906 19.8693V18.8409C239.842 18.8939 239.732 18.9432 239.577 18.9886C239.425 19.0341 239.255 19.0739 239.065 19.108C238.876 19.142 238.688 19.1723 238.503 19.1989C238.317 19.2254 238.156 19.2481 238.02 19.267C237.713 19.3087 237.438 19.3769 237.196 19.4716C236.954 19.5663 236.762 19.6989 236.622 19.8693C236.482 20.036 236.412 20.2519 236.412 20.517C236.412 20.8958 236.55 21.1818 236.827 21.375C237.103 21.5682 237.455 21.6648 237.884 21.6648ZM248.384 14.2727V15.8636H243.366V14.2727H248.384ZM244.605 12.1818H246.662V20.375C246.662 20.6515 246.704 20.8636 246.787 21.0114C246.874 21.1553 246.988 21.2538 247.128 21.3068C247.268 21.3598 247.423 21.3864 247.594 21.3864C247.723 21.3864 247.84 21.3769 247.946 21.358C248.056 21.339 248.139 21.322 248.196 21.3068L248.543 22.9148C248.433 22.9527 248.276 22.9943 248.071 23.0398C247.87 23.0852 247.624 23.1117 247.332 23.1193C246.817 23.1345 246.353 23.0568 245.94 22.8864C245.527 22.7121 245.2 22.4432 244.957 22.0795C244.719 21.7159 244.601 21.2614 244.605 20.7159V12.1818ZM253.874 23.1705C252.999 23.1705 252.243 22.9886 251.607 22.625C250.974 22.2576 250.487 21.7386 250.146 21.0682C249.805 20.3939 249.635 19.6004 249.635 18.6875C249.635 17.7898 249.805 17.0019 250.146 16.3239C250.491 15.642 250.972 15.1117 251.589 14.733C252.207 14.3504 252.932 14.1591 253.766 14.1591C254.304 14.1591 254.811 14.2462 255.288 14.4205C255.769 14.5909 256.194 14.8561 256.561 15.2159C256.932 15.5758 257.224 16.0341 257.436 16.5909C257.648 17.1439 257.754 17.803 257.754 18.5682V19.1989H250.601V17.8125H255.783C255.779 17.4186 255.694 17.0682 255.527 16.7614C255.36 16.4508 255.127 16.2064 254.828 16.0284C254.533 15.8504 254.188 15.7614 253.794 15.7614C253.374 15.7614 253.004 15.8636 252.686 16.0682C252.368 16.2689 252.12 16.5341 251.942 16.8636C251.768 17.1894 251.679 17.5473 251.675 17.9375V19.1477C251.675 19.6553 251.768 20.0909 251.953 20.4545C252.139 20.8144 252.398 21.0909 252.732 21.2841C253.065 21.4735 253.455 21.5682 253.902 21.5682C254.201 21.5682 254.472 21.5265 254.714 21.4432C254.957 21.3561 255.167 21.2292 255.345 21.0625C255.523 20.8958 255.658 20.6894 255.749 20.4432L257.669 20.6591C257.548 21.1667 257.317 21.6098 256.976 21.9886C256.639 22.3636 256.207 22.6553 255.68 22.8636C255.154 23.0682 254.552 23.1705 253.874 23.1705ZM259.494 23V14.2727H261.489V15.7273H261.58C261.739 15.2235 262.011 14.8352 262.398 14.5625C262.788 14.286 263.233 14.1477 263.733 14.1477C263.847 14.1477 263.973 14.1534 264.114 14.1648C264.258 14.1723 264.377 14.1856 264.472 14.2045V16.0966C264.384 16.0663 264.246 16.0398 264.057 16.017C263.871 15.9905 263.691 15.9773 263.517 15.9773C263.142 15.9773 262.805 16.0587 262.506 16.2216C262.21 16.3807 261.977 16.6023 261.807 16.8864C261.636 17.1705 261.551 17.4981 261.551 17.8693V23H259.494ZM267.895 11.3636V23H265.838V11.3636H267.895ZM273.817 23.1705C272.964 23.1705 272.226 22.983 271.601 22.608C270.976 22.233 270.491 21.7083 270.146 21.0341C269.805 20.3598 269.635 19.572 269.635 18.6705C269.635 17.7689 269.805 16.9792 270.146 16.3011C270.491 15.6231 270.976 15.0966 271.601 14.7216C272.226 14.3466 272.964 14.1591 273.817 14.1591C274.669 14.1591 275.408 14.3466 276.033 14.7216C276.658 15.0966 277.141 15.6231 277.482 16.3011C277.826 16.9792 277.999 17.7689 277.999 18.6705C277.999 19.572 277.826 20.3598 277.482 21.0341C277.141 21.7083 276.658 22.233 276.033 22.608C275.408 22.983 274.669 23.1705 273.817 23.1705ZM273.828 21.5227C274.29 21.5227 274.677 21.3958 274.987 21.142C275.298 20.8845 275.529 20.5398 275.68 20.108C275.836 19.6761 275.913 19.1951 275.913 18.6648C275.913 18.1307 275.836 17.6477 275.68 17.2159C275.529 16.7803 275.298 16.4337 274.987 16.1761C274.677 15.9186 274.29 15.7898 273.828 15.7898C273.355 15.7898 272.961 15.9186 272.646 16.1761C272.336 16.4337 272.103 16.7803 271.947 17.2159C271.796 17.6477 271.72 18.1307 271.72 18.6648C271.72 19.1951 271.796 19.6761 271.947 20.108C272.103 20.5398 272.336 20.8845 272.646 21.142C272.961 21.3958 273.355 21.5227 273.828 21.5227ZM283.551 23.1705C282.699 23.1705 281.96 22.983 281.335 22.608C280.71 22.233 280.225 21.7083 279.881 21.0341C279.54 20.3598 279.369 19.572 279.369 18.6705C279.369 17.7689 279.54 16.9792 279.881 16.3011C280.225 15.6231 280.71 15.0966 281.335 14.7216C281.96 14.3466 282.699 14.1591 283.551 14.1591C284.403 14.1591 285.142 14.3466 285.767 14.7216C286.392 15.0966 286.875 15.6231 287.216 16.3011C287.561 16.9792 287.733 17.7689 287.733 18.6705C287.733 19.572 287.561 20.3598 287.216 21.0341C286.875 21.7083 286.392 22.233 285.767 22.608C285.142 22.983 284.403 23.1705 283.551 23.1705ZM283.562 21.5227C284.025 21.5227 284.411 21.3958 284.722 21.142C285.032 20.8845 285.263 20.5398 285.415 20.108C285.57 19.6761 285.648 19.1951 285.648 18.6648C285.648 18.1307 285.57 17.6477 285.415 17.2159C285.263 16.7803 285.032 16.4337 284.722 16.1761C284.411 15.9186 284.025 15.7898 283.562 15.7898C283.089 15.7898 282.695 15.9186 282.381 16.1761C282.07 16.4337 281.837 16.7803 281.682 17.2159C281.53 17.6477 281.455 18.1307 281.455 18.6648C281.455 19.1951 281.53 19.6761 281.682 20.108C281.837 20.5398 282.07 20.8845 282.381 21.142C282.695 21.3958 283.089 21.5227 283.562 21.5227ZM291.893 21.4091L291.82 22.0341C291.767 22.5114 291.672 22.9962 291.536 23.4886C291.403 23.9848 291.263 24.4413 291.115 24.858C290.967 25.2746 290.848 25.6023 290.757 25.8409H289.371C289.424 25.6098 289.496 25.2955 289.587 24.8977C289.681 24.5 289.772 24.053 289.859 23.5568C289.946 23.0606 290.005 22.5568 290.036 22.0455L290.075 21.4091H291.893ZM308.295 17.1818C308.295 18.4356 308.061 19.5095 307.591 20.4034C307.125 21.2936 306.489 21.9754 305.682 22.4489C304.879 22.9223 303.968 23.1591 302.949 23.1591C301.93 23.1591 301.017 22.9223 300.21 22.4489C299.407 21.9716 298.771 21.2879 298.301 20.3977C297.835 19.5038 297.602 18.4318 297.602 17.1818C297.602 15.928 297.835 14.8561 298.301 13.9659C298.771 13.072 299.407 12.3883 300.21 11.9148C301.017 11.4413 301.93 11.2045 302.949 11.2045C303.968 11.2045 304.879 11.4413 305.682 11.9148C306.489 12.3883 307.125 13.072 307.591 13.9659C308.061 14.8561 308.295 15.928 308.295 17.1818ZM306.176 17.1818C306.176 16.2992 306.038 15.5549 305.761 14.9489C305.489 14.339 305.11 13.8788 304.625 13.5682C304.14 13.2538 303.581 13.0966 302.949 13.0966C302.316 13.0966 301.758 13.2538 301.273 13.5682C300.788 13.8788 300.407 14.339 300.131 14.9489C299.858 15.5549 299.722 16.2992 299.722 17.1818C299.722 18.0644 299.858 18.8106 300.131 19.4205C300.407 20.0265 300.788 20.4867 301.273 20.8011C301.758 21.1117 302.316 21.267 302.949 21.267C303.581 21.267 304.14 21.1117 304.625 20.8011C305.11 20.4867 305.489 20.0265 305.761 19.4205C306.038 18.8106 306.176 18.0644 306.176 17.1818ZM319.851 11.3636V23H317.976L312.493 15.0739H312.396V23H310.288V11.3636H312.175L317.652 19.2955H317.754V11.3636H319.851Z" fill="#8590C8"/>
<path d="M20.2102 112.159C19.392 112.159 18.6648 112.019 18.0284 111.739C17.3958 111.458 16.8958 111.068 16.5284 110.568C16.161 110.068 15.9659 109.491 15.9432 108.835H18.0795C18.0985 109.15 18.2027 109.424 18.392 109.659C18.5814 109.89 18.8333 110.07 19.1477 110.199C19.4621 110.328 19.8144 110.392 20.2045 110.392C20.6212 110.392 20.9905 110.32 21.3125 110.176C21.6345 110.028 21.8864 109.824 22.0682 109.562C22.25 109.301 22.339 109 22.3352 108.659C22.339 108.307 22.2481 107.996 22.0625 107.727C21.8769 107.458 21.608 107.248 21.2557 107.097C20.9072 106.945 20.4867 106.869 19.9943 106.869H18.9659V105.244H19.9943C20.3996 105.244 20.7538 105.174 21.0568 105.034C21.3636 104.894 21.6042 104.697 21.7784 104.443C21.9527 104.186 22.0379 103.888 22.0341 103.551C22.0379 103.222 21.964 102.936 21.8125 102.693C21.6648 102.447 21.4545 102.256 21.1818 102.119C20.9129 101.983 20.5966 101.915 20.233 101.915C19.8769 101.915 19.5473 101.979 19.2443 102.108C18.9413 102.237 18.697 102.42 18.5114 102.659C18.3258 102.894 18.2273 103.174 18.2159 103.5H16.1875C16.2027 102.848 16.3902 102.277 16.75 101.784C17.1136 101.288 17.5985 100.902 18.2045 100.625C18.8106 100.345 19.4905 100.205 20.2443 100.205C21.0208 100.205 21.6951 100.35 22.267 100.642C22.8428 100.93 23.2879 101.318 23.6023 101.807C23.9167 102.295 24.0739 102.835 24.0739 103.426C24.0777 104.081 23.8845 104.631 23.4943 105.074C23.108 105.517 22.6004 105.807 21.9716 105.943V106.034C22.7898 106.148 23.4167 106.451 23.8523 106.943C24.2917 107.432 24.5095 108.04 24.5057 108.767C24.5057 109.419 24.3201 110.002 23.9489 110.517C23.5814 111.028 23.0739 111.43 22.4261 111.722C21.7822 112.013 21.0436 112.159 20.2102 112.159ZM30.7571 112.222C29.8215 112.222 29.0185 111.985 28.348 111.511C27.6813 111.034 27.1681 110.347 26.8082 109.449C26.4522 108.547 26.2741 107.462 26.2741 106.193C26.2779 104.924 26.4579 103.845 26.8139 102.955C27.1738 102.061 27.687 101.379 28.3537 100.909C29.0241 100.439 29.8253 100.205 30.7571 100.205C31.6889 100.205 32.4901 100.439 33.1605 100.909C33.831 101.379 34.3442 102.061 34.7003 102.955C35.0601 103.848 35.2401 104.928 35.2401 106.193C35.2401 107.466 35.0601 108.553 34.7003 109.455C34.3442 110.352 33.831 111.038 33.1605 111.511C32.4938 111.985 31.6927 112.222 30.7571 112.222ZM30.7571 110.443C31.4844 110.443 32.0582 110.085 32.4787 109.369C32.9029 108.65 33.1151 107.591 33.1151 106.193C33.1151 105.269 33.0185 104.492 32.8253 103.864C32.6321 103.235 32.3594 102.761 32.0071 102.443C31.6548 102.121 31.2382 101.96 30.7571 101.96C30.0336 101.96 29.4616 102.32 29.0412 103.04C28.6207 103.756 28.4086 104.807 28.4048 106.193C28.401 107.121 28.4938 107.902 28.6832 108.534C28.8764 109.167 29.1491 109.644 29.5014 109.966C29.8537 110.284 30.2723 110.443 30.7571 110.443ZM40.5824 110.136V102.273H42.3665V110.136H40.5824ZM37.5426 107.097V105.312H45.4062V107.097H37.5426ZM58.2997 103.562C58.2467 103.066 58.0232 102.68 57.6293 102.403C57.2391 102.127 56.7315 101.989 56.1065 101.989C55.6671 101.989 55.2902 102.055 54.9759 102.188C54.6615 102.32 54.4209 102.5 54.2543 102.727C54.0876 102.955 54.0024 103.214 53.9986 103.506C53.9986 103.748 54.0535 103.958 54.1634 104.136C54.277 104.314 54.4304 104.466 54.6236 104.591C54.8168 104.712 55.0308 104.814 55.2656 104.898C55.5005 104.981 55.7372 105.051 55.9759 105.108L57.0668 105.381C57.5062 105.483 57.9285 105.621 58.3338 105.795C58.7429 105.97 59.1084 106.189 59.4304 106.455C59.7562 106.72 60.0137 107.04 60.2031 107.415C60.3925 107.79 60.4872 108.229 60.4872 108.733C60.4872 109.415 60.313 110.015 59.9645 110.534C59.616 111.049 59.1122 111.453 58.4531 111.744C57.7978 112.032 57.0043 112.176 56.0724 112.176C55.1671 112.176 54.3812 112.036 53.7145 111.756C53.0516 111.475 52.5327 111.066 52.1577 110.528C51.7865 109.991 51.5857 109.335 51.5554 108.562H53.6293C53.6596 108.968 53.7846 109.305 54.0043 109.574C54.224 109.843 54.5099 110.044 54.8622 110.176C55.2183 110.309 55.616 110.375 56.0554 110.375C56.5137 110.375 56.9152 110.307 57.2599 110.17C57.6084 110.03 57.8812 109.837 58.0781 109.591C58.2751 109.341 58.3755 109.049 58.3793 108.716C58.3755 108.413 58.2865 108.163 58.1122 107.966C57.938 107.765 57.6937 107.598 57.3793 107.466C57.0687 107.33 56.705 107.208 56.2884 107.102L54.9645 106.761C54.0062 106.515 53.2486 106.142 52.6918 105.642C52.1387 105.138 51.8622 104.47 51.8622 103.636C51.8622 102.951 52.0478 102.35 52.419 101.835C52.794 101.32 53.3035 100.92 53.9474 100.636C54.5914 100.348 55.3205 100.205 56.1349 100.205C56.9607 100.205 57.6842 100.348 58.3054 100.636C58.9304 100.92 59.4209 101.316 59.777 101.824C60.133 102.328 60.3168 102.907 60.3281 103.562H58.2997ZM62.3665 112V100.364H66.7301C67.6241 100.364 68.3741 100.53 68.9801 100.864C69.59 101.197 70.0502 101.655 70.3608 102.239C70.6752 102.818 70.8324 103.477 70.8324 104.216C70.8324 104.962 70.6752 105.625 70.3608 106.205C70.0464 106.784 69.5824 107.241 68.9688 107.574C68.3551 107.903 67.5994 108.068 66.7017 108.068H63.8097V106.335H66.4176C66.9403 106.335 67.3684 106.244 67.7017 106.062C68.035 105.881 68.2813 105.631 68.4403 105.312C68.6032 104.994 68.6847 104.629 68.6847 104.216C68.6847 103.803 68.6032 103.439 68.4403 103.125C68.2813 102.811 68.0331 102.566 67.696 102.392C67.3627 102.214 66.9328 102.125 66.4062 102.125H64.4744V112H62.3665ZM72.6634 112V100.364H80.1179V102.131H74.7713V105.29H79.6065V107.057H74.7713V112H72.6634ZM86.0071 112V100.364H90.3707C91.2647 100.364 92.0147 100.519 92.6207 100.83C93.2306 101.14 93.6908 101.576 94.0014 102.136C94.3158 102.693 94.473 103.343 94.473 104.085C94.473 104.831 94.3139 105.479 93.9957 106.028C93.6813 106.574 93.2173 106.996 92.6037 107.295C91.9901 107.591 91.2363 107.739 90.3423 107.739H87.2344V105.989H90.0582C90.581 105.989 91.009 105.917 91.3423 105.773C91.6757 105.625 91.9219 105.411 92.081 105.131C92.2438 104.847 92.3253 104.498 92.3253 104.085C92.3253 103.672 92.2438 103.32 92.081 103.028C91.9181 102.733 91.67 102.509 91.3366 102.358C91.0033 102.203 90.5734 102.125 90.0469 102.125H88.1151V112H86.0071ZM92.0185 106.727L94.8991 112H92.5469L89.7173 106.727H92.0185ZM100.061 112.17C99.1861 112.17 98.4304 111.989 97.794 111.625C97.1615 111.258 96.6747 110.739 96.3338 110.068C95.9929 109.394 95.8224 108.6 95.8224 107.688C95.8224 106.79 95.9929 106.002 96.3338 105.324C96.6785 104.642 97.1596 104.112 97.777 103.733C98.3944 103.35 99.1198 103.159 99.9531 103.159C100.491 103.159 100.999 103.246 101.476 103.42C101.957 103.591 102.381 103.856 102.749 104.216C103.12 104.576 103.411 105.034 103.624 105.591C103.836 106.144 103.942 106.803 103.942 107.568V108.199H96.7884V106.812H101.97C101.966 106.419 101.881 106.068 101.714 105.761C101.548 105.451 101.315 105.206 101.016 105.028C100.72 104.85 100.375 104.761 99.9815 104.761C99.5611 104.761 99.1918 104.864 98.8736 105.068C98.5554 105.269 98.3073 105.534 98.1293 105.864C97.955 106.189 97.866 106.547 97.8622 106.938V108.148C97.8622 108.655 97.955 109.091 98.1406 109.455C98.3262 109.814 98.5857 110.091 98.919 110.284C99.2524 110.473 99.6425 110.568 100.089 110.568C100.389 110.568 100.66 110.527 100.902 110.443C101.144 110.356 101.355 110.229 101.533 110.062C101.711 109.896 101.845 109.689 101.936 109.443L103.857 109.659C103.735 110.167 103.504 110.61 103.163 110.989C102.826 111.364 102.394 111.655 101.868 111.864C101.341 112.068 100.739 112.17 100.061 112.17ZM109.489 112.17C108.617 112.17 107.869 111.979 107.244 111.597C106.623 111.214 106.144 110.686 105.807 110.011C105.473 109.333 105.307 108.553 105.307 107.67C105.307 106.784 105.477 106.002 105.818 105.324C106.159 104.642 106.64 104.112 107.261 103.733C107.886 103.35 108.625 103.159 109.477 103.159C110.186 103.159 110.813 103.29 111.358 103.551C111.907 103.809 112.345 104.174 112.67 104.648C112.996 105.117 113.182 105.667 113.227 106.295H111.261C111.182 105.875 110.992 105.525 110.693 105.244C110.398 104.96 110.002 104.818 109.506 104.818C109.085 104.818 108.716 104.932 108.398 105.159C108.08 105.383 107.831 105.705 107.653 106.125C107.479 106.545 107.392 107.049 107.392 107.636C107.392 108.231 107.479 108.742 107.653 109.17C107.828 109.595 108.072 109.922 108.386 110.153C108.705 110.381 109.078 110.494 109.506 110.494C109.809 110.494 110.08 110.437 110.318 110.324C110.561 110.206 110.763 110.038 110.926 109.818C111.089 109.598 111.201 109.331 111.261 109.017H113.227C113.178 109.634 112.996 110.182 112.682 110.659C112.367 111.133 111.939 111.504 111.398 111.773C110.856 112.038 110.22 112.17 109.489 112.17ZM118.723 112.17C117.871 112.17 117.132 111.983 116.507 111.608C115.882 111.233 115.397 110.708 115.053 110.034C114.712 109.36 114.541 108.572 114.541 107.67C114.541 106.769 114.712 105.979 115.053 105.301C115.397 104.623 115.882 104.097 116.507 103.722C117.132 103.347 117.871 103.159 118.723 103.159C119.575 103.159 120.314 103.347 120.939 103.722C121.564 104.097 122.047 104.623 122.388 105.301C122.732 105.979 122.905 106.769 122.905 107.67C122.905 108.572 122.732 109.36 122.388 110.034C122.047 110.708 121.564 111.233 120.939 111.608C120.314 111.983 119.575 112.17 118.723 112.17ZM118.734 110.523C119.196 110.523 119.583 110.396 119.893 110.142C120.204 109.884 120.435 109.54 120.587 109.108C120.742 108.676 120.82 108.195 120.82 107.665C120.82 107.131 120.742 106.648 120.587 106.216C120.435 105.78 120.204 105.434 119.893 105.176C119.583 104.919 119.196 104.79 118.734 104.79C118.261 104.79 117.867 104.919 117.553 105.176C117.242 105.434 117.009 105.78 116.854 106.216C116.702 106.648 116.626 107.131 116.626 107.665C116.626 108.195 116.702 108.676 116.854 109.108C117.009 109.54 117.242 109.884 117.553 110.142C117.867 110.396 118.261 110.523 118.734 110.523ZM124.651 112V103.273H126.616V104.756H126.719C126.901 104.256 127.202 103.866 127.622 103.585C128.043 103.301 128.545 103.159 129.128 103.159C129.719 103.159 130.217 103.303 130.622 103.591C131.031 103.875 131.319 104.263 131.486 104.756H131.577C131.77 104.271 132.096 103.884 132.554 103.597C133.016 103.305 133.563 103.159 134.196 103.159C134.999 103.159 135.654 103.413 136.162 103.92C136.67 104.428 136.923 105.169 136.923 106.142V112H134.861V106.46C134.861 105.919 134.717 105.523 134.429 105.273C134.141 105.019 133.789 104.892 133.372 104.892C132.876 104.892 132.488 105.047 132.207 105.358C131.931 105.665 131.793 106.064 131.793 106.557V112H129.776V106.375C129.776 105.924 129.639 105.564 129.366 105.295C129.098 105.027 128.745 104.892 128.31 104.892C128.014 104.892 127.745 104.968 127.503 105.119C127.26 105.267 127.067 105.477 126.923 105.75C126.779 106.019 126.707 106.333 126.707 106.693V112H124.651ZM139.01 112V103.273H140.976V104.756H141.078C141.26 104.256 141.561 103.866 141.982 103.585C142.402 103.301 142.904 103.159 143.487 103.159C144.078 103.159 144.576 103.303 144.982 103.591C145.391 103.875 145.679 104.263 145.845 104.756H145.936C146.129 104.271 146.455 103.884 146.913 103.597C147.375 103.305 147.923 103.159 148.555 103.159C149.358 103.159 150.014 103.413 150.521 103.92C151.029 104.428 151.283 105.169 151.283 106.142V112H149.22V106.46C149.22 105.919 149.076 105.523 148.788 105.273C148.5 105.019 148.148 104.892 147.732 104.892C147.235 104.892 146.847 105.047 146.567 105.358C146.29 105.665 146.152 106.064 146.152 106.557V112H144.135V106.375C144.135 105.924 143.999 105.564 143.726 105.295C143.457 105.027 143.105 104.892 142.669 104.892C142.374 104.892 142.105 104.968 141.862 105.119C141.62 105.267 141.427 105.477 141.283 105.75C141.139 106.019 141.067 106.333 141.067 106.693V112H139.01ZM157.233 112.17C156.358 112.17 155.602 111.989 154.966 111.625C154.333 111.258 153.847 110.739 153.506 110.068C153.165 109.394 152.994 108.6 152.994 107.688C152.994 106.79 153.165 106.002 153.506 105.324C153.85 104.642 154.331 104.112 154.949 103.733C155.566 103.35 156.292 103.159 157.125 103.159C157.663 103.159 158.17 103.246 158.648 103.42C159.129 103.591 159.553 103.856 159.92 104.216C160.292 104.576 160.583 105.034 160.795 105.591C161.008 106.144 161.114 106.803 161.114 107.568V108.199H153.96V106.812H159.142C159.138 106.419 159.053 106.068 158.886 105.761C158.72 105.451 158.487 105.206 158.188 105.028C157.892 104.85 157.547 104.761 157.153 104.761C156.733 104.761 156.364 104.864 156.045 105.068C155.727 105.269 155.479 105.534 155.301 105.864C155.127 106.189 155.038 106.547 155.034 106.938V108.148C155.034 108.655 155.127 109.091 155.312 109.455C155.498 109.814 155.758 110.091 156.091 110.284C156.424 110.473 156.814 110.568 157.261 110.568C157.561 110.568 157.831 110.527 158.074 110.443C158.316 110.356 158.527 110.229 158.705 110.062C158.883 109.896 159.017 109.689 159.108 109.443L161.028 109.659C160.907 110.167 160.676 110.61 160.335 110.989C159.998 111.364 159.566 111.655 159.04 111.864C158.513 112.068 157.911 112.17 157.233 112.17ZM164.911 106.886V112H162.854V103.273H164.82V104.756H164.922C165.123 104.267 165.443 103.879 165.882 103.591C166.325 103.303 166.873 103.159 167.524 103.159C168.126 103.159 168.651 103.288 169.098 103.545C169.549 103.803 169.897 104.176 170.143 104.665C170.393 105.153 170.517 105.746 170.513 106.443V112H168.456V106.761C168.456 106.178 168.304 105.722 168.001 105.392C167.702 105.062 167.287 104.898 166.757 104.898C166.397 104.898 166.077 104.977 165.797 105.136C165.52 105.292 165.303 105.517 165.143 105.812C164.988 106.108 164.911 106.466 164.911 106.886ZM175.842 112.153C175.157 112.153 174.543 111.977 174.001 111.625C173.46 111.273 173.032 110.761 172.717 110.091C172.403 109.42 172.246 108.606 172.246 107.648C172.246 106.678 172.405 105.86 172.723 105.193C173.045 104.523 173.479 104.017 174.024 103.676C174.57 103.331 175.178 103.159 175.848 103.159C176.359 103.159 176.78 103.246 177.109 103.42C177.439 103.591 177.7 103.797 177.893 104.04C178.087 104.278 178.236 104.504 178.342 104.716H178.428V100.364H180.49V112H178.467V110.625H178.342C178.236 110.837 178.083 111.062 177.882 111.301C177.681 111.536 177.416 111.737 177.087 111.903C176.757 112.07 176.342 112.153 175.842 112.153ZM176.416 110.466C176.852 110.466 177.223 110.348 177.53 110.114C177.837 109.875 178.07 109.544 178.229 109.119C178.388 108.695 178.467 108.201 178.467 107.636C178.467 107.072 178.388 106.581 178.229 106.165C178.073 105.748 177.842 105.424 177.536 105.193C177.232 104.962 176.859 104.847 176.416 104.847C175.958 104.847 175.575 104.966 175.268 105.205C174.962 105.443 174.731 105.773 174.575 106.193C174.42 106.614 174.342 107.095 174.342 107.636C174.342 108.182 174.42 108.669 174.575 109.097C174.734 109.521 174.967 109.856 175.274 110.102C175.585 110.345 175.965 110.466 176.416 110.466ZM186.545 112.17C185.67 112.17 184.915 111.989 184.278 111.625C183.646 111.258 183.159 110.739 182.818 110.068C182.477 109.394 182.307 108.6 182.307 107.688C182.307 106.79 182.477 106.002 182.818 105.324C183.163 104.642 183.644 104.112 184.261 103.733C184.879 103.35 185.604 103.159 186.438 103.159C186.975 103.159 187.483 103.246 187.96 103.42C188.441 103.591 188.866 103.856 189.233 104.216C189.604 104.576 189.896 105.034 190.108 105.591C190.32 106.144 190.426 106.803 190.426 107.568V108.199H183.273V106.812H188.455C188.451 106.419 188.366 106.068 188.199 105.761C188.032 105.451 187.799 105.206 187.5 105.028C187.205 104.85 186.86 104.761 186.466 104.761C186.045 104.761 185.676 104.864 185.358 105.068C185.04 105.269 184.792 105.534 184.614 105.864C184.439 106.189 184.35 106.547 184.347 106.938V108.148C184.347 108.655 184.439 109.091 184.625 109.455C184.811 109.814 185.07 110.091 185.403 110.284C185.737 110.473 186.127 110.568 186.574 110.568C186.873 110.568 187.144 110.527 187.386 110.443C187.629 110.356 187.839 110.229 188.017 110.062C188.195 109.896 188.33 109.689 188.42 109.443L190.341 109.659C190.22 110.167 189.989 110.61 189.648 110.989C189.311 111.364 188.879 111.655 188.352 111.864C187.826 112.068 187.223 112.17 186.545 112.17ZM195.405 112.153C194.719 112.153 194.106 111.977 193.564 111.625C193.022 111.273 192.594 110.761 192.28 110.091C191.965 109.42 191.808 108.606 191.808 107.648C191.808 106.678 191.967 105.86 192.286 105.193C192.607 104.523 193.041 104.017 193.587 103.676C194.132 103.331 194.74 103.159 195.411 103.159C195.922 103.159 196.342 103.246 196.672 103.42C197.001 103.591 197.263 103.797 197.456 104.04C197.649 104.278 197.799 104.504 197.905 104.716H197.99V100.364H200.053V112H198.03V110.625H197.905C197.799 110.837 197.645 111.062 197.445 111.301C197.244 111.536 196.979 111.737 196.649 111.903C196.32 112.07 195.905 112.153 195.405 112.153ZM195.979 110.466C196.414 110.466 196.786 110.348 197.092 110.114C197.399 109.875 197.632 109.544 197.791 109.119C197.95 108.695 198.03 108.201 198.03 107.636C198.03 107.072 197.95 106.581 197.791 106.165C197.636 105.748 197.405 105.424 197.098 105.193C196.795 104.962 196.422 104.847 195.979 104.847C195.52 104.847 195.138 104.966 194.831 105.205C194.524 105.443 194.293 105.773 194.138 106.193C193.982 106.614 193.905 107.095 193.905 107.636C193.905 108.182 193.982 108.669 194.138 109.097C194.297 109.521 194.53 109.856 194.837 110.102C195.147 110.345 195.528 110.466 195.979 110.466Z" fill="white"/>
<path fill-rule="evenodd" clip-rule="evenodd" d="M25 5C25.5523 5 26 5.44772 26 6V10C26 10.5523 25.5523 11 25 11C24.4477 11 24 10.5523 24 10V6C24 5.44772 24.4477 5 25 5ZM14.3934 9.3934C14.7839 9.00288 15.4171 9.00288 15.8076 9.3934L18.636 12.2218C19.0266 12.6123 19.0266 13.2455 18.636 13.636C18.2455 14.0266 17.6123 14.0266 17.2218 13.636L14.3934 10.8076C14.0029 10.4171 14.0029 9.78392 14.3934 9.3934ZM11 19C10.4477 19 10 19.4477 10 20C10 20.5523 10.4477 21 11 21H15C15.5523 21 16 20.5523 16 20C16 19.4477 15.5523 19 15 19H11ZM14.3934 30.6066C14.0029 30.216 14.0029 29.583 14.3934 29.1924L17.2218 26.364C17.6123 25.9734 18.2455 25.9734 18.636 26.364C19.0266 26.7544 19.0266 27.3876 18.636 27.7782L15.8076 30.6066C15.4171 30.9972 14.7839 30.9972 14.3934 30.6066ZM35 19C34.4478 19 34 19.4477 34 20C34 20.5523 34.4478 21 35 21H39C39.5522 21 40 20.5523 40 20C40 19.4477 39.5522 19 39 19H35ZM31.364 13.636C30.9734 13.2455 30.9734 12.6123 31.364 12.2218L34.1924 9.3934C34.583 9.00288 35.216 9.00288 35.6066 9.3934C35.9972 9.78392 35.9972 10.4171 35.6066 10.8076L32.7782 13.636C32.3876 14.0266 31.7544 14.0266 31.364 13.636ZM26 30C26 29.4478 25.5523 29 25 29C24.4477 29 24 29.4478 24 30V34C24 34.5522 24.4477 35 25 35C25.5523 35 26 34.5522 26 34V30ZM31.364 26.364C31.7544 25.9734 32.3876 25.9734 32.7782 26.364L35.6066 29.1924C35.9972 29.583 35.9972 30.216 35.6066 30.6066C35.216 30.9972 34.583 30.9972 34.1924 30.6066L31.364 27.7782C30.9734 27.3876 30.9734 26.7544 31.364 26.364ZM21 20C21 17.7909 22.7909 16 25 16C27.2091 16 29 17.7909 29 20C29 22.2091 27.2091 24 25 24C22.7909 24 21 22.2091 21 20ZM25 14C21.6863 14 19 16.6863 19 20C19 23.3137 21.6863 26 25 26C28.3137 26 31 23.3137 31 20C31 16.6863 28.3137 14 25 14Z" fill="white"/>
<path opacity="0.3" d="M16 73.2604L316 73.7396" stroke="#8590C8" stroke-width="2" stroke-linecap="round" stroke-linejoin="round" stroke-dasharray="3.5 5.5"/>
</svg>
